<?xml version="1.0" encoding="UTF-8" standalone="no"?>
<!DOCTYPE svg PUBLIC "-//W3C//DTD SVG 1.1//EN"
 "http://www.w3.org/Graphics/SVG/1.1/DTD/svg11.dtd">
<!-- Generated by graphviz version 8.0.4 (20230422.2207)
 -->
<!-- Pages: 1 -->
<svg width="648pt" height="181pt"
 viewBox="0.00 0.00 647.80 180.80" xmlns="http://www.w3.org/2000/svg" xmlns:xlink="http://www.w3.org/1999/xlink">
<g id="graph0" class="graph" transform="scale(1 1) rotate(0) translate(4 176.8)">
<polygon fill="white" stroke="none" points="-4,4 -4,-176.8 643.8,-176.8 643.8,4 -4,4"/>
<!-- S0 -->
<g id="node1" class="node">
<title>S0</title>
<polygon fill="#b2dfee" stroke="#b2dfee" points="361.52,-172.8 277.27,-172.8 277.27,-136.8 361.52,-136.8 361.52,-172.8"/>
<text text-anchor="middle" x="319.4" y="-149.38" font-family="Times New Roman,serif" font-size="14.00">Pan_ANME</text>
</g>
<!-- pyr -->
<g id="node4" class="node">
<title>pyr</title>
<g id="a_node4"><a xlink:href="https://modelseed.org/biochem/compounds/cpd00020" xlink:title="cpd00020 ; Pyruvate">
<ellipse fill="green" stroke="green" cx="14.4" cy="-86.4" rx="14.4" ry="14.4"/>
<text text-anchor="middle" x="14.4" y="-80.98" font-family="Times New Roman,serif" font-size="14.00">pyr</text>
</a>
</g>
</g>
<!-- S0&#45;&gt;pyr -->
<g id="edge5" class="edge">
<title>S0&#45;&gt;pyr</title>
<g id="a_edge5"><a xlink:title="4.546017970504541">
<path fill="none" stroke="black" d="M276.86,-150.08C220.82,-144.23 119.84,-130.33 38.4,-100.8 37.63,-100.52 36.85,-100.22 36.07,-99.89"/>
<polygon fill="black" stroke="black" points="37.76,-96.33 27.25,-95.01 34.64,-102.6 37.76,-96.33"/>
</a>
</g>
</g>
<!-- ac -->
<g id="node5" class="node">
<title>ac</title>
<g id="a_node5"><a xlink:href="https://modelseed.org/biochem/compounds/cpd00029" xlink:title="cpd00029 ; Acetate">
<ellipse fill="green" stroke="green" cx="61.4" cy="-86.4" rx="14.4" ry="14.4"/>
<text text-anchor="middle" x="61.4" y="-80.98" font-family="Times New Roman,serif" font-size="14.00">ac</text>
</a>
</g>
</g>
<!-- S0&#45;&gt;ac -->
<g id="edge7" class="edge">
<title>S0&#45;&gt;ac</title>
<g id="a_edge7"><a xlink:title="0.12856466551708096">
<path fill="none" stroke="black" d="M276.91,-147.93C229.19,-140.48 149.97,-125.54 85.4,-100.8 84.63,-100.51 83.86,-100.19 83.08,-99.86"/>
<polygon fill="black" stroke="black" points="84.79,-96.29 74.28,-94.92 81.64,-102.54 84.79,-96.29"/>
</a>
</g>
</g>
<!-- for -->
<g id="node6" class="node">
<title>for</title>
<g id="a_node6"><a xlink:href="https://modelseed.org/biochem/compounds/cpd00047" xlink:title="cpd00047 ; Formate">
<ellipse fill="green" stroke="green" cx="108.4" cy="-86.4" rx="14.4" ry="14.4"/>
<text text-anchor="middle" x="108.4" y="-80.98" font-family="Times New Roman,serif" font-size="14.00">for</text>
</a>
</g>
</g>
<!-- S0&#45;&gt;for -->
<g id="edge9" class="edge">
<title>S0&#45;&gt;for</title>
<g id="a_edge9"><a xlink:title="0.08636714213204631">
<path fill="none" stroke="black" d="M276.86,-144.73C238.33,-135.83 180.41,-120.69 132.4,-100.8 131.64,-100.48 130.87,-100.15 130.1,-99.8"/>
<polygon fill="black" stroke="black" points="131.83,-96.24 121.34,-94.78 128.63,-102.47 131.83,-96.24"/>
</a>
</g>
</g>
<!-- h -->
<g id="node7" class="node">
<title>h</title>
<g id="a_node7"><a xlink:href="https://modelseed.org/biochem/compounds/cpd00067" xlink:title="cpd00067 ; H+">
<ellipse fill="green" stroke="green" cx="155.4" cy="-86.4" rx="14.4" ry="14.4"/>
<text text-anchor="middle" x="155.4" y="-80.98" font-family="Times New Roman,serif" font-size="14.00">h</text>
</a>
</g>
</g>
<!-- S0&#45;&gt;h -->
<g id="edge11" class="edge">
<title>S0&#45;&gt;h</title>
<g id="a_edge11"><a xlink:title="50.16087775719723">
<path fill="none" stroke="black" d="M277.08,-139.61C248.95,-129.74 211.44,-115.71 179.4,-100.8 178.65,-100.45 177.9,-100.09 177.14,-99.72"/>
<polygon fill="black" stroke="black" points="178.9,-96.16 168.43,-94.57 175.62,-102.35 178.9,-96.16"/>
</a>
</g>
</g>
<!-- so3 -->
<g id="node8" class="node">
<title>so3</title>
<g id="a_node8"><a xlink:href="https://modelseed.org/biochem/compounds/cpd00081" xlink:title="cpd00081 ; Sulfite">
<ellipse fill="green" stroke="green" cx="202.4" cy="-86.4" rx="14.4" ry="14.4"/>
<text text-anchor="middle" x="202.4" y="-80.98" font-family="Times New Roman,serif" font-size="14.00">so3</text>
</a>
</g>
</g>
<!-- S0&#45;&gt;so3 -->
<g id="edge13" class="edge">
<title>S0&#45;&gt;so3</title>
<g id="a_edge13"><a xlink:title="7.194538912741978">
<path fill="none" stroke="black" d="M288.66,-136.35C268.42,-124.87 242.4,-110.1 224.26,-99.8"/>
<polygon fill="black" stroke="black" points="226.26,-96.35 215.83,-94.45 222.8,-102.43 226.26,-96.35"/>
</a>
</g>
</g>
<!-- pro -->
<g id="node9" class="node">
<title>pro</title>
<g id="a_node9"><a xlink:href="https://modelseed.org/biochem/compounds/cpd00129" xlink:title="cpd00129 ; L&#45;Proline">
<ellipse fill="green" stroke="green" cx="249.4" cy="-86.4" rx="14.4" ry="14.4"/>
<text text-anchor="middle" x="249.4" y="-80.98" font-family="Times New Roman,serif" font-size="14.00">pro</text>
</a>
</g>
</g>
<!-- S0&#45;&gt;pro -->
<g id="edge15" class="edge">
<title>S0&#45;&gt;pro</title>
<g id="a_edge15"><a xlink:title="0.16074323725565862">
<path fill="none" stroke="black" d="M301.01,-136.35C290.63,-126.51 277.71,-114.26 267.4,-104.47"/>
<polygon fill="black" stroke="black" points="270.12,-102.28 260.46,-97.94 265.3,-107.36 270.12,-102.28"/>
</a>
</g>
</g>
<!-- gam -->
<g id="node12" class="node">
<title>gam</title>
<g id="a_node12"><a xlink:href="https://modelseed.org/biochem/compounds/cpd00276" xlink:title="cpd00276 ; GLUM">
<ellipse fill="green" stroke="green" cx="296.4" cy="-86.4" rx="14.4" ry="14.4"/>
<text text-anchor="middle" x="296.4" y="-80.98" font-family="Times New Roman,serif" font-size="14.00">gam</text>
</a>
</g>
</g>
<!-- S0&#45;&gt;gam -->
<g id="edge21" class="edge">
<title>S0&#45;&gt;gam</title>
<g id="a_edge21"><a xlink:title="0.018571267737151072">
<path fill="none" stroke="black" d="M313.36,-136.35C310.65,-128.55 307.43,-119.24 304.52,-110.84"/>
<polygon fill="black" stroke="black" points="307.53,-109.84 300.95,-101.53 300.92,-112.13 307.53,-109.84"/>
</a>
</g>
</g>
<!-- ch4 -->
<g id="node13" class="node">
<title>ch4</title>
<g id="a_node13"><a xlink:href="https://modelseed.org/biochem/compounds/cpd00324" xlink:title="cpd00324 ; MTTL">
<ellipse fill="green" stroke="green" cx="343.4" cy="-86.4" rx="14.4" ry="14.4"/>
<text text-anchor="middle" x="343.4" y="-80.98" font-family="Times New Roman,serif" font-size="14.00">ch4</text>
</a>
</g>
</g>
<!-- S0&#45;&gt;ch4 -->
<g id="edge23" class="edge">
<title>S0&#45;&gt;ch4</title>
<g id="a_edge23"><a xlink:title="0.01808394064144435">
<path fill="none" stroke="black" d="M325.71,-136.35C328.6,-128.36 332.06,-118.77 335.15,-110.21"/>
<polygon fill="black" stroke="black" points="338.7,-111.71 338.8,-101.11 332.11,-109.33 338.7,-111.71"/>
</a>
</g>
</g>
<!-- eto -->
<g id="node14" class="node">
<title>eto</title>
<g id="a_node14"><a xlink:href="https://modelseed.org/biochem/compounds/cpd00363" xlink:title="cpd00363 ; Ethanol">
<ellipse fill="green" stroke="green" cx="390.4" cy="-86.4" rx="14.4" ry="14.4"/>
<text text-anchor="middle" x="390.4" y="-80.98" font-family="Times New Roman,serif" font-size="14.00">eto</text>
</a>
</g>
</g>
<!-- S0&#45;&gt;eto -->
<g id="edge25" class="edge">
<title>S0&#45;&gt;eto</title>
<g id="a_edge25"><a xlink:title="1.6819860259199872">
<path fill="none" stroke="black" d="M338.05,-136.35C348.69,-126.41 361.95,-114.01 372.46,-104.18"/>
<polygon fill="black" stroke="black" points="374.29,-107.33 379.2,-97.94 369.5,-102.21 374.29,-107.33"/>
</a>
</g>
</g>
<!-- h2o -->
<g id="node2" class="node">
<title>h2o</title>
<g id="a_node2"><a xlink:href="https://modelseed.org/biochem/compounds/cpd00001" xlink:title="cpd00001 ; H2O">
<ellipse fill="green" stroke="green" cx="437.4" cy="-86.4" rx="14.4" ry="14.4"/>
<text text-anchor="middle" x="437.4" y="-80.98" font-family="Times New Roman,serif" font-size="14.00">h2o</text>
</a>
</g>
</g>
<!-- h2o&#45;&gt;S0 -->
<g id="edge1" class="edge">
<title>h2o&#45;&gt;S0</title>
<g id="a_edge1"><a xlink:title="&#45;13.506613097958432">
<path fill="none" stroke="black" d="M425.16,-94.29C409.08,-103.34 380.13,-119.63 356.57,-132.88"/>
<polygon fill="black" stroke="black" points="355.68,-131.5 351.4,-136.35 357.77,-135.22 355.68,-131.5"/>
</a>
</g>
</g>
<!-- co2 -->
<g id="node3" class="node">
<title>co2</title>
<g id="a_node3"><a xlink:href="https://modelseed.org/biochem/compounds/cpd00011" xlink:title="cpd00011 ; CO2">
<ellipse fill="green" stroke="green" cx="484.4" cy="-86.4" rx="14.4" ry="14.4"/>
<text text-anchor="middle" x="484.4" y="-80.98" font-family="Times New Roman,serif" font-size="14.00">co2</text>
</a>
</g>
</g>
<!-- co2&#45;&gt;S0 -->
<g id="edge3" class="edge">
<title>co2&#45;&gt;S0</title>
<g id="a_edge3"><a xlink:title="&#45;0.6492404157024623">
<path fill="none" stroke="black" d="M472.37,-94.58C468.6,-96.7 464.38,-98.95 460.4,-100.8 431.81,-114.06 398.9,-126.58 372.06,-136.12"/>
<polygon fill="black" stroke="black" points="370.99,-133.14 362.72,-139.76 373.31,-139.74 370.99,-133.14"/>
</a>
</g>
</g>
<!-- S1 -->
<g id="node16" class="node">
<title>S1</title>
<polygon fill="#b2dfee" stroke="#b2dfee" points="355.15,-36 283.65,-36 283.65,0 355.15,0 355.15,-36"/>
<text text-anchor="middle" x="319.4" y="-12.57" font-family="Times New Roman,serif" font-size="14.00">Pan_SRB</text>
</g>
<!-- pyr&#45;&gt;S1 -->
<g id="edge6" class="edge">
<title>pyr&#45;&gt;S1</title>
<g id="a_edge6"><a xlink:title="&#45;4.546017970504541">
<path fill="none" stroke="black" d="M26.25,-77.79C30.01,-75.65 34.27,-73.5 38.4,-72 117.82,-43.21 215.8,-29.28 272.59,-23.17"/>
<polygon fill="black" stroke="black" points="272.79,-26.56 282.38,-22.05 272.07,-19.6 272.79,-26.56"/>
</a>
</g>
</g>
<!-- ac&#45;&gt;S1 -->
<g id="edge8" class="edge">
<title>ac&#45;&gt;S1</title>
<g id="a_edge8"><a xlink:title="&#45;0.12856466551708096">
<path fill="none" stroke="black" d="M73.28,-77.88C77.05,-75.74 81.3,-73.57 85.4,-72 148.01,-48.01 224.39,-33.23 272.48,-25.57"/>
<polygon fill="black" stroke="black" points="272.84,-28.9 282.18,-23.91 271.76,-21.98 272.84,-28.9"/>
</a>
</g>
</g>
<!-- for&#45;&gt;S1 -->
<g id="edge10" class="edge">
<title>for&#45;&gt;S1</title>
<g id="a_edge10"><a xlink:title="&#45;0.08636714213204631">
<path fill="none" stroke="black" d="M120.34,-78.02C124.1,-75.88 128.34,-73.68 132.4,-72 178.85,-52.76 234.57,-37.96 273.04,-28.95"/>
<polygon fill="black" stroke="black" points="273.45,-32.22 282.41,-26.57 271.88,-25.4 273.45,-32.22"/>
</a>
</g>
</g>
<!-- h&#45;&gt;S1 -->
<g id="edge12" class="edge">
<title>h&#45;&gt;S1</title>
<g id="a_edge12"><a xlink:title="&#45;50.160877757197206">
<path fill="none" stroke="black" d="M167.43,-78.23C171.2,-76.1 175.42,-73.85 179.4,-72 210.01,-57.76 245.6,-44.32 273.24,-34.54"/>
<polygon fill="black" stroke="black" points="274.14,-37.59 282.42,-30.98 271.82,-30.98 274.14,-37.59"/>
</a>
</g>
</g>
<!-- so3&#45;&gt;S1 -->
<g id="edge14" class="edge">
<title>so3&#45;&gt;S1</title>
<g id="a_edge14"><a xlink:title="&#45;7.194538912741978">
<path fill="none" stroke="black" d="M214.48,-78.54C229.7,-69.9 256.63,-54.62 279.4,-41.7"/>
<polygon fill="black" stroke="black" points="280.88,-44.32 287.85,-36.34 277.43,-38.23 280.88,-44.32"/>
</a>
</g>
</g>
<!-- pro&#45;&gt;S1 -->
<g id="edge16" class="edge">
<title>pro&#45;&gt;S1</title>
<g id="a_edge16"><a xlink:title="&#45;0.16074323725565862">
<path fill="none" stroke="black" d="M259.43,-75.89C268.21,-67.55 281.38,-55.07 293.14,-43.91"/>
<polygon fill="black" stroke="black" points="295.13,-46.89 299.98,-37.47 290.32,-41.81 295.13,-46.89"/>
</a>
</g>
</g>
<!-- man -->
<g id="node10" class="node">
<title>man</title>
<g id="a_node10"><a xlink:href="https://modelseed.org/biochem/compounds/cpd00138" xlink:title="cpd00138 ; D&#45;Mannose">
<ellipse fill="green" stroke="green" cx="531.4" cy="-86.4" rx="14.4" ry="14.4"/>
<text text-anchor="middle" x="531.4" y="-80.98" font-family="Times New Roman,serif" font-size="14.00">man</text>
</a>
</g>
</g>
<!-- man&#45;&gt;S0 -->
<g id="edge17" class="edge">
<title>man&#45;&gt;S0</title>
<g id="a_edge17"><a xlink:title="&#45;2.075474230771031">
<path fill="none" stroke="black" d="M519.47,-94.79C515.7,-96.92 511.46,-99.12 507.4,-100.8 463.14,-119.1 410.5,-133.33 372.2,-142.42"/>
<polygon fill="black" stroke="black" points="371.74,-139.17 362.79,-144.85 373.33,-145.99 371.74,-139.17"/>
</a>
</g>
</g>
<!-- h2s -->
<g id="node11" class="node">
<title>h2s</title>
<g id="a_node11"><a xlink:href="https://modelseed.org/biochem/compounds/cpd00239" xlink:title="cpd00239 ; H2S">
<ellipse fill="green" stroke="green" cx="578.4" cy="-86.4" rx="14.4" ry="14.4"/>
<text text-anchor="middle" x="578.4" y="-80.98" font-family="Times New Roman,serif" font-size="14.00">h2s</text>
</a>
</g>
</g>
<!-- h2s&#45;&gt;S0 -->
<g id="edge19" class="edge">
<title>h2s&#45;&gt;S0</title>
<g id="a_edge19"><a xlink:title="&#45;3.940502517596127">
<path fill="none" stroke="black" d="M566.52,-94.92C562.75,-97.06 558.5,-99.23 554.4,-100.8 492.03,-124.67 416.04,-139.38 367.69,-147.07"/>
<polygon fill="black" stroke="black" points="367.63,-145.35 362.64,-148.02 368.21,-149.04 367.63,-145.35"/>
</a>
</g>
</g>
<!-- gam&#45;&gt;S1 -->
<g id="edge22" class="edge">
<title>gam&#45;&gt;S1</title>
<g id="a_edge22"><a xlink:title="&#45;0.018571267737151072">
<path fill="none" stroke="black" d="M300.94,-72.28C303.48,-64.97 306.73,-55.58 309.79,-46.73"/>
<polygon fill="black" stroke="black" points="313.42,-47.96 313.38,-37.37 306.8,-45.67 313.42,-47.96"/>
</a>
</g>
</g>
<!-- ch4&#45;&gt;S1 -->
<g id="edge24" class="edge">
<title>ch4&#45;&gt;S1</title>
<g id="a_edge24"><a xlink:title="&#45;0.01808394064144435">
<path fill="none" stroke="black" d="M338.66,-72.28C335.99,-64.89 332.55,-55.38 329.32,-46.44"/>
<polygon fill="black" stroke="black" points="332.37,-45.58 325.68,-37.37 325.79,-47.96 332.37,-45.58"/>
</a>
</g>
</g>
<!-- eto&#45;&gt;S1 -->
<g id="edge26" class="edge">
<title>eto&#45;&gt;S1</title>
<g id="a_edge26"><a xlink:title="&#45;1.6819860259199872">
<path fill="none" stroke="black" d="M380.23,-75.89C371.32,-67.55 357.97,-55.07 346.04,-43.91"/>
<polygon fill="black" stroke="black" points="348.78,-41.75 339.08,-37.47 344,-46.86 348.78,-41.75"/>
</a>
</g>
</g>
<!-- tre -->
<g id="node15" class="node">
<title>tre</title>
<g id="a_node15"><a xlink:href="https://modelseed.org/biochem/compounds/cpd00794" xlink:title="cpd00794 ; TRHL">
<ellipse fill="green" stroke="green" cx="625.4" cy="-86.4" rx="14.4" ry="14.4"/>
<text text-anchor="middle" x="625.4" y="-80.98" font-family="Times New Roman,serif" font-size="14.00">tre</text>
</a>
</g>
</g>
<!-- tre&#45;&gt;S0 -->
<g id="edge27" class="edge">
<title>tre&#45;&gt;S0</title>
<g id="a_edge27"><a xlink:title="&#45;0.0018786502021652656">
<path fill="none" stroke="black" d="M613.55,-95.01C609.79,-97.15 605.53,-99.3 601.4,-100.8 524.4,-128.69 429.99,-142.62 372.3,-149.01"/>
<polygon fill="black" stroke="black" points="372.18,-145.61 362.61,-150.16 372.93,-152.57 372.18,-145.61"/>
</a>
</g>
</g>
<!-- S1&#45;&gt;h2o -->
<g id="edge2" class="edge">
<title>S1&#45;&gt;h2o</title>
<g id="a_edge2"><a xlink:title="22.124994872475796">
<path fill="none" stroke="black" d="M350.21,-36.34C370.78,-47.91 397.33,-62.85 415.7,-73.19"/>
<polygon fill="black" stroke="black" points="413.78,-76.69 424.22,-78.54 417.22,-70.59 413.78,-76.69"/>
</a>
</g>
</g>
<!-- S1&#45;&gt;co2 -->
<g id="edge4" class="edge">
<title>S1&#45;&gt;co2</title>
<g id="a_edge4"><a xlink:title="0.6492404157024623">
<path fill="none" stroke="black" d="M355.65,-30.95C384.49,-40.85 425.65,-55.88 460.4,-72 461.15,-72.35 461.9,-72.71 462.66,-73.08"/>
<polygon fill="black" stroke="black" points="460.9,-76.64 471.37,-78.22 464.18,-70.45 460.9,-76.64"/>
</a>
</g>
</g>
<!-- S1&#45;&gt;man -->
<g id="edge18" class="edge">
<title>S1&#45;&gt;man</title>
<g id="a_edge18"><a xlink:title="2.075474230771031">
<path fill="none" stroke="black" d="M355.58,-26.54C394.07,-35.17 456.32,-50.88 507.4,-72 508.16,-72.31 508.93,-72.65 509.7,-72.99"/>
<polygon fill="black" stroke="black" points="507.97,-76.56 518.47,-78.01 511.17,-70.33 507.97,-76.56"/>
</a>
</g>
</g>
<!-- S1&#45;&gt;h2s -->
<g id="edge20" class="edge">
<title>S1&#45;&gt;h2s</title>
<g id="a_edge20"><a xlink:title="7.3744233089905915">
<path fill="none" stroke="black" d="M355.37,-23.82C402.3,-30.85 486.43,-45.99 554.4,-72 555.17,-72.29 555.94,-72.61 556.72,-72.94"/>
<polygon fill="black" stroke="black" points="555.01,-76.51 565.52,-77.88 558.16,-70.25 555.01,-76.51"/>
</a>
</g>
</g>
<!-- S1&#45;&gt;tre -->
<g id="edge28" class="edge">
<title>S1&#45;&gt;tre</title>
<g id="a_edge28"><a xlink:title="0.001878650202165266">
<path fill="none" stroke="black" d="M355.55,-22.03C410.17,-27.44 516.39,-41.21 601.4,-72 602.17,-72.28 602.95,-72.58 603.73,-72.91"/>
<polygon fill="black" stroke="black" points="602.04,-76.47 612.55,-77.79 605.16,-70.2 602.04,-76.47"/>
</a>
</g>
</g>
</g>
</svg>
